<?xml version="1.0" encoding="UTF-8" standalone="no"?>
<!DOCTYPE svg PUBLIC "-//W3C//DTD SVG 1.1//EN"
 "http://www.w3.org/Graphics/SVG/1.1/DTD/svg11.dtd">
<!-- Generated by graphviz version 2.38.0 (20140413.2041)
 -->
<!-- Title: erd Pages: 1 -->
<svg width="488pt" height="306pt"
 viewBox="0.00 0.00 488.00 305.50" xmlns="http://www.w3.org/2000/svg" xmlns:xlink="http://www.w3.org/1999/xlink">
<g id="graph0" class="graph" transform="scale(1 1) rotate(0) translate(4 301.5)">
<title>erd</title>
<polygon fill="white" stroke="none" points="-4,4 -4,-301.5 484,-301.5 484,4 -4,4"/>
<!-- Query -->
<g id="node1" class="node"><title>Query</title>
<polygon fill="none" stroke="black" points="8.5,-202.5 8.5,-227.5 161.5,-227.5 161.5,-202.5 8.5,-202.5"/>
<text text-anchor="start" x="65.0104" y="-211.1" font-family="Times,serif" font-weight="bold" font-size="16.00">Query</text>
<polygon fill="none" stroke="black" points="8.5,-177.5 8.5,-202.5 161.5,-202.5 161.5,-177.5 8.5,-177.5"/>
<text text-anchor="start" x="11.0208" y="-185.1" font-family="Times,serif" font-size="16.00">findNote(id:Int): Notes</text>
<polygon fill="none" stroke="black" points="8.5,-152.5 8.5,-177.5 161.5,-177.5 161.5,-152.5 8.5,-152.5"/>
<text text-anchor="start" x="24.8032" y="-160.1" font-family="Times,serif" font-size="16.00">userNotes: [Notes]</text>
<polygon fill="none" stroke="black" points="8.5,-127.5 8.5,-152.5 161.5,-152.5 161.5,-127.5 8.5,-127.5"/>
<text text-anchor="start" x="34.1384" y="-135.1" font-family="Times,serif" font-size="16.00">getusers: [User]</text>
<polygon fill="none" stroke="black" points="8.5,-102.5 8.5,-127.5 161.5,-127.5 161.5,-102.5 8.5,-102.5"/>
<text text-anchor="start" x="19.02" y="-110.1" font-family="Times,serif" font-size="16.00">getFlag: [FlagTable]</text>
</g>
<!-- Notes -->
<g id="node2" class="node"><title>Notes</title>
<polygon fill="none" stroke="black" points="213.5,-268.5 213.5,-293.5 298.5,-293.5 298.5,-268.5 213.5,-268.5"/>
<text text-anchor="start" x="237.339" y="-277.1" font-family="Times,serif" font-weight="bold" font-size="16.00">Notes</text>
<polygon fill="none" stroke="black" points="213.5,-243.5 213.5,-268.5 298.5,-268.5 298.5,-243.5 213.5,-243.5"/>
<text text-anchor="start" x="234.452" y="-251.1" font-family="Times,serif" font-size="16.00">id: ID!</text>
<polygon fill="none" stroke="black" points="213.5,-218.5 213.5,-243.5 298.5,-243.5 298.5,-218.5 213.5,-218.5"/>
<text text-anchor="start" x="219.776" y="-226.1" font-family="Times,serif" font-size="16.00">title: String</text>
<polygon fill="none" stroke="black" points="213.5,-193.5 213.5,-218.5 298.5,-218.5 298.5,-193.5 213.5,-193.5"/>
<text text-anchor="start" x="216.22" y="-201.1" font-family="Times,serif" font-size="16.00">body: String</text>
<polygon fill="none" stroke="black" points="213.5,-168.5 213.5,-193.5 298.5,-193.5 298.5,-168.5 213.5,-168.5"/>
<text text-anchor="start" x="222.902" y="-176.1" font-family="Times,serif" font-size="16.00">userId: Int</text>
<polygon fill="none" stroke="black" points="213.5,-143.5 213.5,-168.5 298.5,-168.5 298.5,-143.5 213.5,-143.5"/>
<text text-anchor="start" x="223.35" y="-151.1" font-family="Times,serif" font-size="16.00">user: User</text>
</g>
<!-- Query&#45;&gt;Notes -->
<g id="edge1" class="edge"><title>Query:findNoteport&#45;&gt;Notes</title>
<path fill="none" stroke="black" d="M162.5,-190.5C173.237,-190.5 184.386,-192.267 195.062,-194.914"/>
<polygon fill="black" stroke="black" points="194.138,-198.289 204.708,-197.566 195.994,-191.54 194.138,-198.289"/>
</g>
<!-- Query&#45;&gt;Notes -->
<g id="edge2" class="edge"><title>Query:userNotesport&#45;&gt;Notes</title>
<path fill="none" stroke="black" d="M162.5,-164.5C173.959,-164.5 185.254,-167.655 195.794,-172.439"/>
<polygon fill="black" stroke="black" points="194.344,-175.628 204.847,-177.024 197.507,-169.383 194.344,-175.628"/>
</g>
<!-- User -->
<g id="node3" class="node"><title>User</title>
<polygon fill="none" stroke="black" points="350,-230.5 350,-255.5 472,-255.5 472,-230.5 350,-230.5"/>
<text text-anchor="start" x="395.899" y="-239.1" font-family="Times,serif" font-weight="bold" font-size="16.00">User</text>
<polygon fill="none" stroke="black" points="350,-205.5 350,-230.5 472,-230.5 472,-205.5 350,-205.5"/>
<text text-anchor="start" x="389.452" y="-213.1" font-family="Times,serif" font-size="16.00">id: ID!</text>
<polygon fill="none" stroke="black" points="350,-180.5 350,-205.5 472,-205.5 472,-180.5 350,-180.5"/>
<text text-anchor="start" x="355.235" y="-188.1" font-family="Times,serif" font-size="16.00">firstName: String</text>
<polygon fill="none" stroke="black" points="350,-155.5 350,-180.5 472,-180.5 472,-155.5 350,-155.5"/>
<text text-anchor="start" x="357.01" y="-163.1" font-family="Times,serif" font-size="16.00">lastName: String</text>
<polygon fill="none" stroke="black" points="350,-130.5 350,-155.5 472,-155.5 472,-130.5 350,-130.5"/>
<text text-anchor="start" x="352.56" y="-138.1" font-family="Times,serif" font-size="16.00">isAdmin: Boolean</text>
<polygon fill="none" stroke="black" points="350,-105.5 350,-130.5 472,-130.5 472,-105.5 350,-105.5"/>
<text text-anchor="start" x="366.785" y="-113.1" font-family="Times,serif" font-size="16.00">email: String!</text>
<polygon fill="none" stroke="black" points="350,-80.5 350,-105.5 472,-105.5 472,-80.5 350,-80.5"/>
<text text-anchor="start" x="357.008" y="-88.1" font-family="Times,serif" font-size="16.00">password: String</text>
<polygon fill="none" stroke="black" points="350,-55.5 350,-80.5 472,-80.5 472,-55.5 350,-55.5"/>
<text text-anchor="start" x="365.904" y="-63.1" font-family="Times,serif" font-size="16.00">notes: [Notes]</text>
</g>
<!-- Query&#45;&gt;User -->
<g id="edge3" class="edge"><title>Query:getusersport&#45;&gt;User</title>
<path fill="none" stroke="black" d="M162.5,-139.5C181.808,-139.5 185.797,-132.511 205,-130.5 249.645,-125.825 261.423,-125.217 306,-130.5 314.508,-131.508 323.327,-132.965 332.069,-134.676"/>
<polygon fill="black" stroke="black" points="331.384,-138.108 341.886,-136.705 332.801,-131.253 331.384,-138.108"/>
</g>
<!-- FlagTable -->
<g id="node4" class="node"><title>FlagTable</title>
<polygon fill="none" stroke="black" points="216.5,-53.5 216.5,-78.5 294.5,-78.5 294.5,-53.5 216.5,-53.5"/>
<text text-anchor="start" x="223.066" y="-62.1" font-family="Times,serif" font-weight="bold" font-size="16.00">FlagTable</text>
<polygon fill="none" stroke="black" points="216.5,-28.5 216.5,-53.5 294.5,-53.5 294.5,-28.5 216.5,-28.5"/>
<text text-anchor="start" x="233.952" y="-36.1" font-family="Times,serif" font-size="16.00">id: ID!</text>
<polygon fill="none" stroke="black" points="216.5,-3.5 216.5,-28.5 294.5,-28.5 294.5,-3.5 216.5,-3.5"/>
<text text-anchor="start" x="219.282" y="-11.1" font-family="Times,serif" font-size="16.00">flag: String</text>
</g>
<!-- Query&#45;&gt;FlagTable -->
<g id="edge4" class="edge"><title>Query:getFlagport&#45;&gt;FlagTable</title>
<path fill="none" stroke="black" d="M162.5,-114.5C172.663,-114.5 188.861,-103.431 204.854,-89.9127"/>
<polygon fill="black" stroke="black" points="207.415,-92.3231 212.661,-83.1178 202.82,-87.043 207.415,-92.3231"/>
</g>
<!-- Notes&#45;&gt;User -->
<g id="edge5" class="edge"><title>Notes:userport&#45;&gt;User</title>
<path fill="none" stroke="black" d="M299.5,-155.5C309.895,-155.5 320.839,-155.5 331.635,-155.5"/>
<polygon fill="black" stroke="black" points="331.918,-159 341.918,-155.5 331.918,-152 331.918,-159"/>
</g>
<!-- User&#45;&gt;Notes -->
<g id="edge6" class="edge"><title>User:notesport&#45;&gt;Notes</title>
<path fill="none" stroke="black" d="M349,-67.5C344.626,-67.5 325.854,-97.3536 306.352,-130.512"/>
<polygon fill="black" stroke="black" points="303.145,-129.063 301.117,-139.462 309.187,-132.598 303.145,-129.063"/>
</g>
</g>
</svg>
